<svg width="24" height="25" viewBox="0 0 24 25" fill="none" xmlns="http://www.w3.org/2000/svg">
<path d="M6.86016 20.1875H17.1398L17.707 8.1875H6.29297L6.86016 20.1875Z" fill="#00A3FF" fill-opacity="0.15"/>
<path d="M20.25 6.5H17.25V4.625C17.25 3.79766 16.5773 3.125 15.75 3.125H8.25C7.42266 3.125 6.75 3.79766 6.75 4.625V6.5H3.75C3.33516 6.5 3 6.83516 3 7.25V8C3 8.10313 3.08437 8.1875 3.1875 8.1875H4.60312L5.18203 20.4453C5.21953 21.2445 5.88047 21.875 6.67969 21.875H17.3203C18.1219 21.875 18.7805 21.2469 18.818 20.4453L19.3969 8.1875H20.8125C20.9156 8.1875 21 8.10313 21 8V7.25C21 6.83516 20.6648 6.5 20.25 6.5ZM8.4375 4.8125H15.5625V6.5H8.4375V4.8125ZM17.1398 20.1875H6.86016L6.29297 8.1875H17.707L17.1398 20.1875Z" fill="#00A3FF"/>
</svg>
