<svg width="21" height="21" viewBox="0 0 21 21" fill="none" xmlns="http://www.w3.org/2000/svg">
<path d="M20.1773 13.1698L18.6422 11.8573C18.7148 11.412 18.7523 10.9573 18.7523 10.5026C18.7523 10.0479 18.7148 9.59326 18.6422 9.14795L20.1773 7.83545C20.2931 7.73632 20.376 7.6043 20.4149 7.45693C20.4539 7.30956 20.447 7.15383 20.3953 7.01045L20.3742 6.94951C19.9516 5.76832 19.3187 4.67334 18.5063 3.71748L18.4641 3.66826C18.3655 3.55237 18.2341 3.46906 18.0873 3.42931C17.9404 3.38956 17.785 3.39524 17.6414 3.44561L15.7359 4.12295C15.0328 3.54639 14.2477 3.0917 13.3992 2.77295L13.0312 0.780762C13.0035 0.630861 12.9308 0.492955 12.8228 0.385366C12.7148 0.277777 12.5766 0.205598 12.4266 0.178418L12.3633 0.166699C11.1422 -0.0536133 9.85781 -0.0536133 8.63672 0.166699L8.57344 0.178418C8.42343 0.205598 8.28524 0.277777 8.17723 0.385366C8.06923 0.492955 7.99651 0.630861 7.96875 0.780762L7.59844 2.78232C6.75677 3.10114 5.97297 3.55559 5.27812 4.12764L3.35859 3.44561C3.21507 3.39484 3.05951 3.38896 2.91257 3.42873C2.76562 3.4685 2.63426 3.55205 2.53594 3.66826L2.49375 3.71748C1.68222 4.67402 1.04947 5.76882 0.62578 6.94951L0.604686 7.01045C0.499217 7.30342 0.585936 7.63154 0.822655 7.83545L2.37656 9.16201C2.30391 9.60264 2.26875 10.0526 2.26875 10.5003C2.26875 10.9503 2.30391 11.4003 2.37656 11.8386L0.822655 13.1651C0.706864 13.2643 0.62399 13.3963 0.585055 13.5437C0.546119 13.691 0.552967 13.8468 0.604686 13.9901L0.62578 14.0511C1.05 15.2323 1.67812 16.3222 2.49375 17.2831L2.53594 17.3323C2.6345 17.4482 2.76587 17.5315 2.91272 17.5713C3.05958 17.611 3.21503 17.6053 3.35859 17.555L5.27812 16.8729C5.97656 17.4472 6.75703 17.9019 7.59844 18.2183L7.96875 20.2198C7.99651 20.3697 8.06923 20.5076 8.17723 20.6152C8.28524 20.7228 8.42343 20.795 8.57344 20.8222L8.63672 20.8339C9.86903 21.0554 11.131 21.0554 12.3633 20.8339L12.4266 20.8222C12.5766 20.795 12.7148 20.7228 12.8228 20.6152C12.9308 20.5076 13.0035 20.3697 13.0312 20.2198L13.3992 18.2276C14.2473 17.9097 15.0369 17.4536 15.7359 16.8776L17.6414 17.555C17.7849 17.6057 17.9405 17.6116 18.0874 17.5719C18.2344 17.5321 18.3657 17.4485 18.4641 17.3323L18.5063 17.2831C19.3219 16.3198 19.95 15.2323 20.3742 14.0511L20.3953 13.9901C20.5008 13.7019 20.4141 13.3737 20.1773 13.1698ZM16.9781 9.42451C17.0367 9.77842 17.0672 10.1417 17.0672 10.505C17.0672 10.8683 17.0367 11.2315 16.9781 11.5854L16.8234 12.5253L18.5742 14.0229C18.3088 14.6344 17.9738 15.2132 17.5758 15.7479L15.4008 14.9769L14.6648 15.5815C14.1047 16.0409 13.4812 16.4019 12.8062 16.655L11.9133 16.9901L11.4937 19.2636C10.8318 19.3386 10.1635 19.3386 9.50156 19.2636L9.08203 16.9855L8.19609 16.6456C7.52812 16.3925 6.90703 16.0315 6.35156 15.5745L5.61562 14.9675L3.42656 15.7456C3.02812 15.2089 2.69531 14.63 2.42812 14.0206L4.19766 12.5089L4.04531 11.5714C3.98906 11.2222 3.95859 10.8612 3.95859 10.505C3.95859 10.1464 3.98672 9.78779 4.04531 9.43857L4.19766 8.50107L2.42812 6.98936C2.69297 6.37764 3.02812 5.80107 3.42656 5.26436L5.61562 6.04248L6.35156 5.43545C6.90703 4.97842 7.52812 4.61748 8.19609 4.36436L9.08437 4.0292L9.50391 1.75107C10.1625 1.67607 10.8352 1.67607 11.4961 1.75107L11.9156 4.02451L12.8086 4.35967C13.4812 4.61279 14.107 4.97373 14.6672 5.43311L15.4031 6.03779L17.5781 5.2667C17.9766 5.80342 18.3094 6.38232 18.5766 6.9917L16.8258 8.48936L16.9781 9.42451ZM10.5023 6.14561C8.22422 6.14561 6.37734 7.99248 6.37734 10.2706C6.37734 12.5487 8.22422 14.3956 10.5023 14.3956C12.7805 14.3956 14.6273 12.5487 14.6273 10.2706C14.6273 7.99248 12.7805 6.14561 10.5023 6.14561ZM12.3586 12.1269C12.1151 12.371 11.8258 12.5646 11.5072 12.6966C11.1887 12.8285 10.8471 12.8961 10.5023 12.8956C9.80156 12.8956 9.14297 12.6214 8.64609 12.1269C8.40193 11.8834 8.20831 11.5941 8.07638 11.2755C7.94445 10.9569 7.87681 10.6154 7.87734 10.2706C7.87734 9.56982 8.15156 8.91123 8.64609 8.41436C9.14297 7.91748 9.80156 7.64561 10.5023 7.64561C11.2031 7.64561 11.8617 7.91748 12.3586 8.41436C12.6028 8.65782 12.7964 8.94716 12.9283 9.26572C13.0602 9.58429 13.1279 9.9258 13.1273 10.2706C13.1273 10.9714 12.8531 11.63 12.3586 12.1269Z" fill="#4F4F4F"/>
</svg>
