<svg width="19" height="21" viewBox="0 0 19 21" fill="none" xmlns="http://www.w3.org/2000/svg">
<path d="M17.1875 3H15.875V1.3125C15.875 1.00078 15.6242 0.75 15.3125 0.75H1.4375C1.12578 0.75 0.875 1.00078 0.875 1.3125V7.6875C0.875 7.99922 1.12578 8.25 1.4375 8.25H15.3125C15.6242 8.25 15.875 7.99922 15.875 7.6875V4.5H16.625V9.1875H8.39844C7.88047 9.1875 7.46094 9.60703 7.46094 10.125V13.3125H6.42969C6.32656 13.3125 6.24219 13.3969 6.24219 13.5V18.8438C6.24219 18.8578 6.24453 18.8742 6.24688 18.8883C6.24453 18.9352 6.24219 18.9844 6.24219 19.0312C6.24219 20.1187 7.12344 21 8.21094 21C9.29844 21 10.1797 20.1187 10.1797 19.0312C10.1797 18.982 10.1773 18.9352 10.175 18.8883C10.1773 18.8742 10.1797 18.8602 10.1797 18.8438V13.5C10.1797 13.3969 10.0953 13.3125 9.99219 13.3125H8.96094V10.6875H17.1875C17.7055 10.6875 18.125 10.268 18.125 9.75V3.9375C18.125 3.41953 17.7055 3 17.1875 3ZM14.375 6.75H2.375V2.25H14.375V6.75ZM8.67969 19.0312C8.67969 19.2891 8.46875 19.5 8.21094 19.5C7.95312 19.5 7.74219 19.2891 7.74219 19.0312V14.8125H8.67969V19.0312Z" fill="#00A3FF"/>
</svg>
